<svg id="Layer_1" data-name="Layer 1" xmlns="http://www.w3.org/2000/svg" viewBox="0 0 202.18 310.65"><defs><style>.cls-1{fill:#fff;}</style></defs><title>c-m-n-logo</title><path class="cls-1" d="M164.14,100.86A63.06,63.06,0,0,0,38,100.79v.48c0,13.13,3.89,27.11,10.38,40.84s15.41,27,24.66,38.66a302.2,302.2,0,0,0,28,30.45c3.55-3.37,7.67-7.45,12.08-12.13,13.59-14.36,29.75-34.43,40-55.65,6.85-14.16,11-28.63,11-42.12,0-.18,0-.33,0-.46m38,.23v.54c-.13,21-6.28,40.7-14.79,58.36s-19.67,33.59-30.58,47a340.59,340.59,0,0,1-40.06,41.37l-.22.18-.35.3-.06,0a17.4,17.4,0,0,1-3,2.06h0a23.84,23.84,0,0,1-25.28-.76,18.23,18.23,0,0,1-2.21-1.66c-.05,0-.11-.08-.15-.13a333.78,333.78,0,0,1-24.14-23.22C46.11,209,27.68,186.58,14.79,160,6.31,142.4.18,122.8,0,101.83c0-.15,0-.39,0-.74a101.09,101.09,0,1,1,202.18,0m-76.84,190a19.57,19.57,0,0,1-19.57,19.58H96.41a19.58,19.58,0,0,1-19.57-19.58V272.85h48.5Z"/></svg>
